<?xml version="1.0" encoding="utf-8"?>
<!-- Generator: Adobe Illustrator 19.1.0, SVG Export Plug-In . SVG Version: 6.00 Build 0)  -->
<svg version="1.1" xmlns="http://www.w3.org/2000/svg" xmlns:xlink="http://www.w3.org/1999/xlink" x="0px" y="0px"
	 viewBox="0 0 678 159.2" style="enable-background:new 0 0 678 159.2;" xml:space="preserve">
<style type="text/css">
	.st0{fill:#AC282C;}
	.st1{fill:#949399;}
	.st2{display:none;}
	.st3{display:inline;}
</style>
<g id="images">
</g>
<g id="working">
	<g>
		<path class="st0" d="M678,0l-6.7,28.7H125.7L111,92.2H70.9c0.1-0.5,0.2-1,0.4-1.5l14.2-61.9H50L56.5,0H678z"/>
		<path class="st0" d="M67.4,104.1c-2.6,7.4-5.7,12.8-9.2,16.2c-5.3,5.1-13.3,7.6-24,7.6c-5.7,0-10.2-0.6-13.6-1.7
			c-3.4-1.1-6.6-2.3-9.6-3.4H7.4L0,155c4.7,1,10.1,1.7,16.1,2.2c6,0.5,12.7,0.8,20.2,0.8c20.3,0,36.3-4.4,48-13.2
			s19.7-22.3,23.9-40.5l0-0.2H67.4z"/>
	</g>
	<g>
		<path class="st1" d="M205.5,104.5l-4.9,21c-3.7,2.6-7.6,4.7-11.8,6.4c-4.2,1.7-8.1,2.5-11.8,2.5c-5.6,0-9.9-0.8-12.8-2.4
			c-2.9-1.6-4.4-4.4-4.4-8.4c0-4.5,1.1-8.2,3.3-10.9c2.2-2.7,5.4-4.9,9.6-6.4c1.9-0.7,4-1.3,6.3-1.8h-50c-0.5,0.6-0.9,1.2-1.4,1.9
			c-4.3,6.4-6.5,14.1-6.5,23.3c0,8.7,3,15.7,9.1,21.1c6.1,5.4,13.9,8.1,23.6,8.1c6,0,10.7-0.4,14-1.2c3.4-0.8,7-2,10.8-3.6
			c2.8-1.2,5.9-2.9,9.2-5.1c3.3-2.1,6.1-4,8.5-5.5l-2.9,12.2h36.9l11.8-51.1H205.5z"/>
		<path class="st1" d="M164.7,64.6c7.4-2.1,14.1-3.1,20.2-3.1c9,0,15.8,1,20.3,2.9c4.5,2,6.8,5.4,6.8,10.3c0,1.2-0.1,2.2-0.3,3.1
			c-0.2,0.9-0.4,1.6-0.5,2c-12.8,0.8-24.8,1.9-35.8,3.5c-11,1.6-20.5,4.2-28.5,7.7c-1.1,0.5-2.2,1-3.3,1.6h101.3l3.6-15.8
			c0.4-1.6,0.7-3.6,1-5.8c0.2-2.2,0.4-4,0.4-5.4c0-10-4.2-17.3-12.7-22.1c-8.5-4.7-21.8-7.1-39.9-7.1c-9,0-18,0.7-27.1,2.1
			c-9.1,1.4-15.8,2.6-20.1,3.7l-5.5,27.4h3.4C151.7,68.4,157.3,66.7,164.7,64.6z"/>
	</g>
	<g>
		<path class="st1" d="M285.2,104.5c5.7,2.5,13,4.8,21.8,6.8c9.3,2.1,15.4,3.9,18.4,5.4c3,1.4,4.4,3.5,4.4,6.3
			c0,3.6-2.1,6.3-6.2,8.2c-4.2,1.9-10.4,2.9-18.7,2.9c-5.6,0-10.8-0.6-15.6-1.7c-4.8-1.1-9-2.5-12.7-4.1c-4.3-1.7-7.6-3.4-9.9-4.9
			c-2.3-1.6-4.2-3-5.7-4.3h-3.4l-7.1,30.5c4.9,2.5,12.1,4.6,21.3,6.5s18.9,2.8,28.8,2.8c20.1,0,36.1-3.7,47.9-11.2
			c11.8-7.5,17.7-17.6,17.7-30.6c0-4.8-1-9-3-12.6H285.2z"/>
		<path class="st1" d="M356.8,39.3c-8.7-1.8-17.3-2.6-26-2.6c-19.9,0-35.7,3.8-47.4,11.3c-11.7,7.5-17.5,17.8-17.5,30.9
			c0,5.2,1.4,9.8,4,13.9h79.5c-6.2-3-14.3-5.6-24.5-7.8c-7.8-1.7-13.6-3.4-17.2-5c-3.6-1.6-5.5-3.9-5.5-7c0-3.9,2.1-6.8,6.3-8.7
			c4.2-1.9,10.3-2.8,18.2-2.8c7.3,0,14.4,1.2,21.3,3.6c6.9,2.4,12.8,5.4,17.7,9.2h3.2l6.8-29.3C371.8,43,365.5,41.1,356.8,39.3z"/>
	</g>
	<g>
		<path class="st1" d="M417.2,92.7c0-0.2,0.1-0.3,0.1-0.5c1.6-6.4,3.8-11.7,6.6-16.1c3-4.7,6.5-8.3,10.5-10.8
			c4-2.5,8.5-3.8,13.8-3.8c6.7,0,11.6,1.9,14.7,5.7c3.1,3.8,4.6,9.3,4.6,16.3c0,3.2-0.1,6.3-0.4,9.1h38.4c0.4-3.4,0.6-6.9,0.6-10.5
			c0-14.4-4.6-25.6-13.8-33.8c-9.2-8.1-22.4-12.2-39.7-12.2c-11.8,0-22.5,2-32,6c-9.5,4-17.5,9.5-24.1,16.4
			c-6.7,7.1-11.8,15.3-15.3,24.5c-1.1,3.1-2.1,6.2-2.8,9.4H417.2z"/>
		<path class="st1" d="M465.1,104.5c-1.6,5.7-4,10.9-7.1,15.7c-2.9,4.3-6.4,7.7-10.5,10.2c-4.1,2.4-8.4,3.7-12.9,3.7
			c-6.1,0-10.9-1.7-14.4-5.1c-3.5-3.4-5.3-9.1-5.3-17c0-2.5,0.2-5,0.4-7.5h-38.6c-0.2,2.7-0.4,5.4-0.4,8.2c0,14.6,4.6,26,13.8,34.2
			c9.2,8.2,22.4,12.4,39.7,12.4c12.1,0,22.7-1.9,31.7-5.7c9.1-3.8,17-9.3,23.9-16.3c6.6-6.8,11.7-14.9,15.4-24.4
			c1-2.7,1.9-5.5,2.7-8.3H465.1z"/>
	</g>
	<g>
		<polygon class="st1" points="520.8,104.5 508.9,155.6 546.3,155.6 558,104.5 		"/>
		<path class="st1" d="M560.7,92.7l4.4-19.1c4.8-2.5,9.1-4.4,13-5.7c3.9-1.3,7.3-1.9,10.2-1.9c6,0,10.2,1,12.5,3.1
			c2.3,2.1,3.4,5.3,3.4,9.8c0,2.6-0.3,5.4-0.8,8.5c-0.3,1.6-0.7,3.4-1.1,5.4H640l2.9-12.4c0.6-2.6,1.1-5.1,1.3-7.5
			c0.3-2.4,0.4-4.6,0.4-6.7c0-9.5-2.9-16.8-8.7-21.8c-5.8-5-13.9-7.5-24.2-7.5c-7.6,0-14.5,1.4-20.8,4.2
			c-6.3,2.8-13.3,6.7-20.9,11.7l3.1-12.8h-37.3l-12.2,52.8H560.7z"/>
		<polygon class="st1" points="650.5,127.3 643.9,155.6 588,155.6 599.7,104.5 637.3,104.5 632,127.3 		"/>
	</g>
	<g class="st2">
		<polygon class="st3" points="377.2,-161.8 388.3,-210.1 367.1,-210.1 356,-161.8 		"/>
		<polygon class="st3" points="373.1,-144.1 375.7,-155.6 354.5,-155.6 348.2,-128.3 407.3,-128.3 411,-144.1 		"/>
	</g>
	<g class="st2">
		<path class="st3" d="M483.3-161.8c0.1-0.2,0.1-0.5,0.2-0.7c0.5-2.4,0.7-4.8,0.7-7.3c0-7.3-2.3-12.8-7-16.5
			c-4.7-3.7-11.6-5.6-20.8-5.6c-6,0-11.6,1-16.7,3c-5.1,2-9.3,4.7-12.6,8.2c-3.5,3.6-6.2,7.7-8.1,12.4c-0.8,2.1-1.5,4.2-1.9,6.5
			H483.3z M443.9-176.2c2.8-2.2,6.2-3.3,10.3-3.3c3.4,0,6,0.8,7.8,2.3c1.8,1.5,2.7,3.8,2.7,6.7c0,0.6,0,1.2-0.1,1.7
			c-0.1,0.6-0.1,1.2-0.2,1.8h-26.7C439-171,441.1-174,443.9-176.2z"/>
		<path class="st3" d="M466.3-142.7c-3.9,1.5-8,2.2-12.3,2.2c-6.2,0-10.8-1.2-13.8-3.6s-4.5-5.8-4.5-10.1c0-0.2,0-0.4,0-0.6
			c0-0.2,0-0.3,0-0.5h-19.3c0,0.8-0.1,1.6-0.1,2.4c0,8.2,2.9,14.6,8.6,19.3c5.7,4.7,13.8,7,24.4,7c4.8,0,9.3-0.4,13.6-1.3
			c4.3-0.9,8.3-2.1,12.2-3.8l3.7-15.9h-2.2C473.5-145.8,470.1-144.2,466.3-142.7z"/>
	</g>
	<g class="st2">
		<path class="st3" d="M508.4-161.8c0.9-3.2,2.1-5.9,3.6-8c1.8-2.4,3.9-4.3,6.4-5.7c2.5-1.4,5.4-2.1,8.5-2.1c1.3,0,2.8,0.2,4.6,0.6
			c1.7,0.4,3.1,0.9,4.2,1.4l-3.2,13.7h19.9l12-51.9h-19.9l-6.1,26.3c-2.6-1.4-5.2-2.5-7.7-3.2c-2.5-0.7-5.4-1-8.8-1
			c-4.8,0-9.4,1.1-13.8,3.4c-4.4,2.3-8.2,5.3-11.4,9.2c-3.3,4-5.9,8.5-7.8,13.7c-0.4,1.2-0.8,2.4-1.2,3.6H508.4z"/>
		<path class="st3" d="M531.1-155.6l-2.4,10.2c-1.8,1.1-3.7,2-5.7,2.9c-2,0.8-3.9,1.2-5.7,1.2c-3.5,0-6.1-0.8-7.8-2.5
			c-1.7-1.7-2.6-4.4-2.6-8.1c0-1.2,0.1-2.5,0.2-3.7h-20.6c-0.3,2.2-0.4,4.4-0.4,6.6c0,7.1,1.8,12.7,5.4,16.5
			c3.6,3.9,8.3,5.8,14.3,5.8c2.2,0,4.1-0.2,5.7-0.5c1.6-0.4,3.2-0.9,4.9-1.6c1.8-0.8,3.4-1.7,4.8-2.7c1.4-1,3.1-2.1,5-3.3l-1.5,6.4
			h19.9l6.3-27.3H531.1z"/>
	</g>
	<g class="st2">
		<polygon class="st3" points="628,-161.8 634.5,-190 614.6,-190 608.1,-161.8 		"/>
		<polygon class="st3" points="585.9,-161.8 592.4,-190 572.5,-190 566,-161.8 		"/>
		<path class="st3" d="M606.7-155.6l-2.2,9.3c-2.5,1.3-4.7,2.3-6.8,3c-2.1,0.7-4,1-5.6,1c-3.3,0-5.5-0.5-6.6-1.6
			c-1.2-1.1-1.8-2.8-1.8-5.2c0-1.2,0.1-2.6,0.4-4.3c0.1-0.7,0.2-1.4,0.4-2.2h-20l-1.3,5.7c-0.3,1.4-0.6,2.7-0.7,3.9
			c-0.1,1.2-0.2,2.5-0.2,3.9c0,5.1,1.6,8.9,4.7,11.5c3.1,2.6,7.4,3.9,12.8,3.9c1.7,0,3.5-0.2,5.2-0.5c1.8-0.3,3.7-0.9,5.8-1.8
			c1.7-0.7,3.5-1.5,5.4-2.7c1.9-1.1,3.8-2.3,5.8-3.6l-1.6,6.8h19.9l6.3-27.3H606.7z"/>
	</g>
	<g class="st2">
		<path class="st3" d="M681.6-143.1c-3.1,1.6-6.6,2.3-10.4,2.3c-4.9,0-8.5-1.1-10.8-3.4c-2.3-2.3-3.5-5.7-3.5-10.3
			c0-0.4,0-0.8,0-1.2h-20.5c-0.1,1-0.1,2-0.1,3.1c0,4.3,0.8,8.1,2.3,11.3c1.5,3.3,3.6,6,6.3,8.1c2.7,2.2,6,3.8,9.6,4.9
			c3.7,1,7.6,1.6,11.8,1.6c4.8,0,8.6-0.4,11.6-1.1c3-0.7,6.5-2,10.4-3.7l4.2-16.9h-2.8C687.4-146.3,684.7-144.6,681.6-143.1z"/>
		<path class="st3" d="M657.8-161.8c0.9-3.4,2.5-6.5,4.7-9.1c3.8-4.4,8.8-6.6,15-6.6c3.4,0,6.5,0.6,9.2,1.9c2.7,1.3,5.2,3.2,7.3,5.8
			h2.8l4.2-16.9c-3.2-1.6-6.6-2.8-10.4-3.7c-3.7-0.8-7.5-1.3-11.2-1.3c-6.3,0-12.1,1-17.5,3.1s-9.9,4.8-13.7,8.3
			c-3.8,3.6-6.8,7.7-8.9,12.5c-0.9,2-1.6,4-2.1,6.1H657.8z"/>
	</g>
</g>
<g id="type">
</g>
</svg>
