<svg xmlns="http://www.w3.org/2000/svg" viewBox="0 0 678 159.2" enable-background="new 0 0 678 159.2"><style type="text/css">.st0{fill:#AC282C;} .st1{fill:#949399;} .st2{display:none;} .st3{display:inline;}</style><g id="working"><path class="st0" d="M678 0l-6.7 28.7h-545.6l-14.7 63.5h-40.1c.1-.5.2-1 .4-1.5l14.2-61.9h-35.5l6.5-28.8h621.5zM67.4 104.1c-2.6 7.4-5.7 12.8-9.2 16.2-5.3 5.1-13.3 7.6-24 7.6-5.7 0-10.2-.6-13.6-1.7-3.4-1.1-6.6-2.3-9.6-3.4h-3.6l-7.4 32.2c4.7 1 10.1 1.7 16.1 2.2 6 .5 12.7.8 20.2.8 20.3 0 36.3-4.4 48-13.2s19.7-22.3 23.9-40.5v-.2h-40.8z"/><path class="st1" d="M205.5 104.5l-4.9 21c-3.7 2.6-7.6 4.7-11.8 6.4-4.2 1.7-8.1 2.5-11.8 2.5-5.6 0-9.9-.8-12.8-2.4-2.9-1.6-4.4-4.4-4.4-8.4 0-4.5 1.1-8.2 3.3-10.9 2.2-2.7 5.4-4.9 9.6-6.4 1.9-.7 4-1.3 6.3-1.8h-50c-.5.6-.9 1.2-1.4 1.9-4.3 6.4-6.5 14.1-6.5 23.3 0 8.7 3 15.7 9.1 21.1 6.1 5.4 13.9 8.1 23.6 8.1 6 0 10.7-.4 14-1.2 3.4-.8 7-2 10.8-3.6 2.8-1.2 5.9-2.9 9.2-5.1 3.3-2.1 6.1-4 8.5-5.5l-2.9 12.2h36.9l11.8-51.1h-36.6zM164.7 64.6c7.4-2.1 14.1-3.1 20.2-3.1 9 0 15.8 1 20.3 2.9 4.5 2 6.8 5.4 6.8 10.3 0 1.2-.1 2.2-.3 3.1-.2.9-.4 1.6-.5 2-12.8.8-24.8 1.9-35.8 3.5-11 1.6-20.5 4.2-28.5 7.7-1.1.5-2.2 1-3.3 1.6h101.3l3.6-15.8c.4-1.6.7-3.6 1-5.8.2-2.2.4-4 .4-5.4 0-10-4.2-17.3-12.7-22.1-8.5-4.7-21.8-7.1-39.9-7.1-9 0-18 .7-27.1 2.1-9.1 1.4-15.8 2.6-20.1 3.7l-5.5 27.4h3.4c3.7-1.2 9.3-2.9 16.7-5zM285.2 104.5c5.7 2.5 13 4.8 21.8 6.8 9.3 2.1 15.4 3.9 18.4 5.4 3 1.4 4.4 3.5 4.4 6.3 0 3.6-2.1 6.3-6.2 8.2-4.2 1.9-10.4 2.9-18.7 2.9-5.6 0-10.8-.6-15.6-1.7-4.8-1.1-9-2.5-12.7-4.1-4.3-1.7-7.6-3.4-9.9-4.9-2.3-1.6-4.2-3-5.7-4.3h-3.4l-7.1 30.5c4.9 2.5 12.1 4.6 21.3 6.5s18.9 2.8 28.8 2.8c20.1 0 36.1-3.7 47.9-11.2 11.8-7.5 17.7-17.6 17.7-30.6 0-4.8-1-9-3-12.6h-78zM356.8 39.3c-8.7-1.8-17.3-2.6-26-2.6-19.9 0-35.7 3.8-47.4 11.3-11.7 7.5-17.5 17.8-17.5 30.9 0 5.2 1.4 9.8 4 13.9h79.5c-6.2-3-14.3-5.6-24.5-7.8-7.8-1.7-13.6-3.4-17.2-5-3.6-1.6-5.5-3.9-5.5-7 0-3.9 2.1-6.8 6.3-8.7 4.2-1.9 10.3-2.8 18.2-2.8 7.3 0 14.4 1.2 21.3 3.6 6.9 2.4 12.8 5.4 17.7 9.2h3.2l6.8-29.3c-3.9-2-10.2-3.9-18.9-5.7zM417.2 92.7l.1-.5c1.6-6.4 3.8-11.7 6.6-16.1 3-4.7 6.5-8.3 10.5-10.8s8.5-3.8 13.8-3.8c6.7 0 11.6 1.9 14.7 5.7 3.1 3.8 4.6 9.3 4.6 16.3 0 3.2-.1 6.3-.4 9.1h38.4c.4-3.4.6-6.9.6-10.5 0-14.4-4.6-25.6-13.8-33.8-9.2-8.1-22.4-12.2-39.7-12.2-11.8 0-22.5 2-32 6s-17.5 9.5-24.1 16.4c-6.7 7.1-11.8 15.3-15.3 24.5-1.1 3.1-2.1 6.2-2.8 9.4h38.8zM465.1 104.5c-1.6 5.7-4 10.9-7.1 15.7-2.9 4.3-6.4 7.7-10.5 10.2-4.1 2.4-8.4 3.7-12.9 3.7-6.1 0-10.9-1.7-14.4-5.1-3.5-3.4-5.3-9.1-5.3-17 0-2.5.2-5 .4-7.5h-38.6c-.2 2.7-.4 5.4-.4 8.2 0 14.6 4.6 26 13.8 34.2 9.2 8.2 22.4 12.4 39.7 12.4 12.1 0 22.7-1.9 31.7-5.7 9.1-3.8 17-9.3 23.9-16.3 6.6-6.8 11.7-14.9 15.4-24.4 1-2.7 1.9-5.5 2.7-8.3h-38.4zM520.8 104.5l-11.9 51.1h37.4l11.7-51.1zM560.7 92.7l4.4-19.1c4.8-2.5 9.1-4.4 13-5.7 3.9-1.3 7.3-1.9 10.2-1.9 6 0 10.2 1 12.5 3.1 2.3 2.1 3.4 5.3 3.4 9.8 0 2.6-.3 5.4-.8 8.5-.3 1.6-.7 3.4-1.1 5.4h37.7l2.9-12.4c.6-2.6 1.1-5.1 1.3-7.5.3-2.4.4-4.6.4-6.7 0-9.5-2.9-16.8-8.7-21.8-5.8-5-13.9-7.5-24.2-7.5-7.6 0-14.5 1.4-20.8 4.2-6.3 2.8-13.3 6.7-20.9 11.7l3.1-12.8h-37.3l-12.2 52.8h37.1zM650.5 127.3l-6.6 28.3h-55.9l11.7-51.1h37.6l-5.3 22.8z"/><g class="st2"><path class="st3" d="M377.2-161.8l11.1-48.3h-21.2l-11.1 48.3zM373.1-144.1l2.6-11.5h-21.2l-6.3 27.3h59.1l3.7-15.8z"/></g><g class="st2"><path class="st3" d="M483.3-161.8l.2-.7c.5-2.4.7-4.8.7-7.3 0-7.3-2.3-12.8-7-16.5-4.7-3.7-11.6-5.6-20.8-5.6-6 0-11.6 1-16.7 3s-9.3 4.7-12.6 8.2c-3.5 3.6-6.2 7.7-8.1 12.4-.8 2.1-1.5 4.2-1.9 6.5h66.2zm-39.4-14.4c2.8-2.2 6.2-3.3 10.3-3.3 3.4 0 6 .8 7.8 2.3 1.8 1.5 2.7 3.8 2.7 6.7 0 .6 0 1.2-.1 1.7l-.2 1.8h-26.7c1.3-4 3.4-7 6.2-9.2zM466.3-142.7c-3.9 1.5-8 2.2-12.3 2.2-6.2 0-10.8-1.2-13.8-3.6s-4.5-5.8-4.5-10.1v-1.1h-19.3l-.1 2.4c0 8.2 2.9 14.6 8.6 19.3 5.7 4.7 13.8 7 24.4 7 4.8 0 9.3-.4 13.6-1.3 4.3-.9 8.3-2.1 12.2-3.8l3.7-15.9h-2.2c-3.1 1.8-6.5 3.4-10.3 4.9z"/></g><g class="st2"><path class="st3" d="M508.4-161.8c.9-3.2 2.1-5.9 3.6-8 1.8-2.4 3.9-4.3 6.4-5.7 2.5-1.4 5.4-2.1 8.5-2.1 1.3 0 2.8.2 4.6.6 1.7.4 3.1.9 4.2 1.4l-3.2 13.7h19.9l12-51.9h-19.9l-6.1 26.3c-2.6-1.4-5.2-2.5-7.7-3.2-2.5-.7-5.4-1-8.8-1-4.8 0-9.4 1.1-13.8 3.4s-8.2 5.3-11.4 9.2c-3.3 4-5.9 8.5-7.8 13.7l-1.2 3.6h20.7zM531.1-155.6l-2.4 10.2c-1.8 1.1-3.7 2-5.7 2.9-2 .8-3.9 1.2-5.7 1.2-3.5 0-6.1-.8-7.8-2.5-1.7-1.7-2.6-4.4-2.6-8.1 0-1.2.1-2.5.2-3.7h-20.6c-.3 2.2-.4 4.4-.4 6.6 0 7.1 1.8 12.7 5.4 16.5 3.6 3.9 8.3 5.8 14.3 5.8 2.2 0 4.1-.2 5.7-.5 1.6-.4 3.2-.9 4.9-1.6 1.8-.8 3.4-1.7 4.8-2.7 1.4-1 3.1-2.1 5-3.3l-1.5 6.4h19.9l6.3-27.3h-19.8z"/></g><g class="st2"><path class="st3" d="M628-161.8l6.5-28.2h-19.9l-6.5 28.2zM585.9-161.8l6.5-28.2h-19.9l-6.5 28.2zM606.7-155.6l-2.2 9.3c-2.5 1.3-4.7 2.3-6.8 3-2.1.7-4 1-5.6 1-3.3 0-5.5-.5-6.6-1.6-1.2-1.1-1.8-2.8-1.8-5.2 0-1.2.1-2.6.4-4.3.1-.7.2-1.4.4-2.2h-20l-1.3 5.7c-.3 1.4-.6 2.7-.7 3.9-.1 1.2-.2 2.5-.2 3.9 0 5.1 1.6 8.9 4.7 11.5 3.1 2.6 7.4 3.9 12.8 3.9 1.7 0 3.5-.2 5.2-.5 1.8-.3 3.7-.9 5.8-1.8 1.7-.7 3.5-1.5 5.4-2.7 1.9-1.1 3.8-2.3 5.8-3.6l-1.6 6.8h19.9l6.3-27.3h-19.9z"/></g><g class="st2"><path class="st3" d="M681.6-143.1c-3.1 1.6-6.6 2.3-10.4 2.3-4.9 0-8.5-1.1-10.8-3.4-2.3-2.3-3.5-5.7-3.5-10.3v-1.2h-20.5c-.1 1-.1 2-.1 3.1 0 4.3.8 8.1 2.3 11.3 1.5 3.3 3.6 6 6.3 8.1 2.7 2.2 6 3.8 9.6 4.9 3.7 1 7.6 1.6 11.8 1.6 4.8 0 8.6-.4 11.6-1.1 3-.7 6.5-2 10.4-3.7l4.2-16.9h-2.8c-2.3 2.1-5 3.8-8.1 5.3zM657.8-161.8c.9-3.4 2.5-6.5 4.7-9.1 3.8-4.4 8.8-6.6 15-6.6 3.4 0 6.5.6 9.2 1.9 2.7 1.3 5.2 3.2 7.3 5.8h2.8l4.2-16.9c-3.2-1.6-6.6-2.8-10.4-3.7-3.7-.8-7.5-1.3-11.2-1.3-6.3 0-12.1 1-17.5 3.1s-9.9 4.8-13.7 8.3c-3.8 3.6-6.8 7.7-8.9 12.5-.9 2-1.6 4-2.1 6.1h20.6z"/></g></g></svg>