<?xml version="1.0" encoding="utf-8"?>
<!-- Generator: Adobe Illustrator 19.1.0, SVG Export Plug-In . SVG Version: 6.00 Build 0)  -->
<svg version="1.1" id="art" xmlns="http://www.w3.org/2000/svg" xmlns:xlink="http://www.w3.org/1999/xlink" x="0px" y="0px"
	 viewBox="0 0 128 126.7" style="enable-background:new 0 0 128 126.7;" xml:space="preserve">
<g>
	<path d="M128,65.2c0,0-2.1-17.6-9.9-26.2l-6.6,1.5c0,0-19.6-34.6-18.1-40.5c0,0-7.7,6.9-9.1,12.4c0,0-23.9,1.3-33.6,6.3l7.1-7.9
		c-0.5,0.4-17.3,12.7-20.1,11.4c0,0-0.8-6.3,1.8-7.4c0,0-8.1,1.2-12.7,15.8c0,0-7.6,4.8-13.5,14.3c0,0-9.7,0.8-13.3,3.8
		c0,0,8.2,2.9,8.3,4.9c0,0-7.3,26.5-5.2,54.9c0,0,7.7,11.7,9.2,18.3c-0.1-0.8-1.7-11.4-0.8-24.5c1.9-1.3,3.8-1.1,3.8-1.1
		c0,3.4,1.7,7.3,2.9,9.6c0.9,1.8,2.5,3.1,4.4,3.8c6.1,1.9,17,1.2,19.7,0.9c0.4,0,0.9,0,1.3-0.1c12.6-0.5,11.6-15.6,11.6-15.6
		c0-1.4,4.7-1.8,4.7-1.8h0.1c0,0,4.7,0.4,4.7,1.8c0,0-1,15.1,11.6,15.6c0.4,0,0.9,0,1.3,0.1c2.7,0.2,13.5,1,19.7-0.9
		c1.9-0.6,3.5-2,4.4-3.8c1.2-2.3,2.9-6.3,2.9-9.6c0,0,2.1-0.2,4.2,1.4l1.4,19.8l4.3-13.8l-0.7,14.2c0,0,9.4-32.1,7.3-45.6l3.6,1.3
		c0,0,0.3-12.7-3.8-17L128,65.2z M43.7,113.9c-0.4,0-0.8,0-1.2,0.1c-3.5,0.3-22.7,1.6-23.9-5.3c0,0-3.6-10.3,0.6-12.3
		c0,0,24.2-3.4,32.4,1.6c0.9,0.5,1.4,1.5,1.4,2.5C53.2,104.2,52.5,113.5,43.7,113.9z M101.1,108.7c-1.2,7-20.5,5.6-23.9,5.3
		c-0.4,0-0.8,0-1.2-0.1c-8.9-0.4-9.5-9.8-9.4-13.4c0-1,0.6-2,1.4-2.5c8.3-5,32.4-1.6,32.4-1.6C104.7,98.4,101.1,108.7,101.1,108.7z
		 M97.2,94.3c-9.1-1-24.8-1.8-31.1,3.6c0,0-3.3-2.1-6-2.1H60c-2.6,0-6,2.1-6,2.1c-6.3-5.3-22-4.6-31.1-3.6
		c-3.7,0.4-7.4,1.3-10.9,2.6C14.3,78.8,22,58,44.8,52.4l7,4.5l19.3-4.8l0.5-0.1c0,0,0.2,0.1,0.5,0.3C75.7,54.6,97.4,69,99,76.4
		c1-0.8-1.8-10.9-12.9-19.5c11.6,5.7,22.3,16.6,22.3,37.6l0.2,2.5C104.9,95.6,101.1,94.7,97.2,94.3z"/>
	<path d="M72.1,52.3c-0.3-0.1-0.7-0.1-1-0.2l0.5-0.1C71.6,52,71.8,52.1,72.1,52.3z"/>
	<path d="M70.2,90.8c0,0,13.5-6.5,17.4-5.6c0,0,8.4,1.6,10.7,6.1c0,0-10.8-1.4-14-0.7c-0.4,0.1-0.9,0.2-1.3,0.3l-9.8,1.6L70.2,90.8z
		"/>
	<path d="M50.5,90.8c0,0-13.5-6.5-17.4-5.6c0,0-8.4,1.6-10.7,6.1c0,0,10.8-1.4,14-0.7c0.4,0.1,0.9,0.2,1.3,0.3l9.8,1.6L50.5,90.8z"
		/>
</g>
</svg>
